<svg width="45" height="45" viewBox="0 0 45 45" fill="none" xmlns="http://www.w3.org/2000/svg">
<mask id="mask0_138_51" style="mask-type:alpha" maskUnits="userSpaceOnUse" x="0" y="0" width="45" height="45">
<rect width="45" height="45" fill="#0090C1"/>
</mask>
<g mask="url(#mask0_138_51)">
<path d="M22.5 41.25C19.9063 41.25 17.4687 40.7578 15.1875 39.7734C12.9062 38.7891 10.9219 37.4531 9.23437 35.7656C7.54687 34.0781 6.21094 32.0938 5.22656 29.8125C4.24219 27.5313 3.75 25.0937 3.75 22.5C3.75 19.9063 4.24219 17.4687 5.22656 15.1875C6.21094 12.9062 7.54687 10.9219 9.23437 9.23437C10.9219 7.54687 12.9062 6.21094 15.1875 5.22656C17.4687 4.24219 19.9063 3.75 22.5 3.75C24.5313 3.75 26.4531 4.04687 28.2656 4.64062C30.0781 5.23438 31.75 6.0625 33.2812 7.125L30.5625 9.89063C29.375 9.14063 28.1094 8.55469 26.7656 8.13281C25.4219 7.71094 24 7.5 22.5 7.5C18.3437 7.5 14.8047 8.96094 11.8828 11.8828C8.96094 14.8047 7.5 18.3437 7.5 22.5C7.5 26.6563 8.96094 30.1953 11.8828 33.1172C14.8047 36.0391 18.3437 37.5 22.5 37.5C26.6563 37.5 30.1953 36.0391 33.1172 33.1172C36.0391 30.1953 37.5 26.6563 37.5 22.5C37.5 21.9375 37.4688 21.375 37.4063 20.8125C37.3438 20.25 37.25 19.7031 37.125 19.1719L40.1719 16.125C40.5156 17.125 40.7813 18.1563 40.9688 19.2188C41.1563 20.2812 41.25 21.375 41.25 22.5C41.25 25.0937 40.7578 27.5313 39.7734 29.8125C38.7891 32.0938 37.4531 34.0781 35.7656 35.7656C34.0781 37.4531 32.0938 38.7891 29.8125 39.7734C27.5313 40.7578 25.0937 41.25 22.5 41.25ZM19.875 31.125L11.9062 23.1563L14.5312 20.5312L19.875 25.875L38.625 7.07812L41.25 9.70312L19.875 31.125Z" fill="#0090C1"/>
</g>
</svg>
